#!OML:ASF H:\ColoradoDance\Project 1\Capture day 1\Session 8\male.ASF
:FULLY-SPECIFIED
:DEGREES
47
upperback -0.107484 -1.288830 -8.857640
rfoot -18.094400 -4.192860
lradius 23.520000
lthumb 5.336150 18.314699
rradius 23.400000
lwrist 15.746200
rhand -38.034901 -3.064230
rhumerus -18.024599 -39.499401 15.707100
lowerneck 0.383487 14.226700 10.760700
lhand -21.039600 -11.598100
ltibia 62.884102
head 4.218280 9.407540 -0.735135
rwrist -13.819000
lfingers 7.125020
rtoes -21.090200
lowerback 3.583360 -0.193003 -9.845080
rfingers 7.125020
lclavicle -0.000000 0.000000
upperneck 9.823440 18.445400 0.732675
rfemur -35.413200 -23.437599 53.824699
thorax -2.163080 -0.751825 -3.662980
rclavicle -0.000000 0.000000
rtibia 54.539902
lfoot -19.237801 -1.964440
lhumerus 52.413700 64.353203 45.786098
rthumb -11.072900 -32.752102
root -5.082090 18.411100 5.974300 -270.411987 -72.770203 -82.163902
ltoes -11.348600
lfemur -22.906200 24.720200 6.023520
48
upperback -0.153830 -1.589190 -8.830850
rfoot -22.184601 -5.283000
lradius 23.745100
lthumb 5.306080 18.222000
rradius 23.410801
lwrist 16.569599
rhand -37.988998 -2.759860
rhumerus -17.333900 -38.786701 15.248200
lowerneck 0.241475 14.254400 10.732500
lhand -21.070700 -11.691600
ltibia 61.941200
head 3.915180 9.430500 -0.705591
rwrist -13.211800
lfingers 7.125020
rtoes -18.072300
lowerback 4.102000 -0.357455 -9.782380
rfingers 7.125020
lclavicle 0.000000 0.000000
upperneck 8.978200 18.497101 0.906819
rfemur -35.541000 -22.687799 54.018902
thorax -2.503600 -0.888778 -3.646360
rclavicle 0.000000 0.000000
rtibia 53.731800
lfoot -25.840401 2.676850
lhumerus 51.781799 63.393700 45.219200
rthumb -11.028700 -32.450100
root -5.072000 18.283300 5.973770 -272.266998 -72.976196 -79.650002
ltoes -12.653000
lfemur -23.136900 24.676901 4.120040
49
upperback -0.206887 -1.864360 -9.065330
rfoot -23.734699 -9.378110
lradius 23.998301
lthumb 5.070150 18.577801
rradius 23.314600
lwrist 16.792101
rhand -37.910000 -2.888830
rhumerus -16.938000 -38.696800 14.959900
lowerneck -0.330460 14.182400 10.724700
lhand -21.315100 -11.341500
ltibia 60.257401
head 3.994540 9.361990 -0.691481
rwrist -12.630000
lfingers 7.125020
rtoes -9.656750
lowerback 3.971060 -0.509764 -10.845300
rfingers 7.125020
lclavicle 0.000000 0.000000
upperneck 8.903840 18.355400 0.840568
rfemur -36.266998 -20.768801 54.098999
thorax -2.467590 -1.024460 -3.302920
rclavicle 0.000000 0.000000
rtibia 52.651501
lfoot -29.795401 2.932860
lhumerus 52.180801 62.645199 45.835701
rthumb -10.952500 -32.583099
root -5.119450 18.205999 5.996560 -274.260010 -73.795502 -76.762398
ltoes -15.244800
lfemur -23.206499 24.436300 2.532210
50
upperback 0.024412 -1.759010 -9.106000
rfoot -26.035299 -10.075200
lradius 23.860399
lthumb 4.685350 18.083599
rradius 23.368299
lwrist 16.375900
rhand -38.113400 -2.516350
rhumerus -17.425699 -38.459999 14.691000
lowerneck -0.926448 13.856600 11.113300
lhand -21.713600 -11.844600
ltibia 59.568802
head 4.191410 9.119650 -0.706661
rwrist -12.646200
lfingers 7.125020
rtoes -7.564580
lowerback 3.600400 -0.508538 -10.781000
rfingers 7.125020
lclavicle 0.000000 -0.000000
upperneck 9.108360 17.823601 0.899803
rfemur -36.939999 -20.021099 54.664799
thorax -2.017370 -0.989905 -3.393720
rclavicle 0.000000 -0.000000
rtibia 52.541199
lfoot -33.381699 4.721190
lhumerus 53.084801 62.214298 47.375999
rthumb -11.148600 -32.200199
root -5.112930 18.096800 6.004170 -276.381989 -73.335197 -74.008499
ltoes -17.631901
lfemur -23.764500 24.352600 2.115610
51
upperback 0.175597 -1.648120 -9.354900
rfoot -28.639099 -10.791800
lradius 23.032400
lthumb 4.698250 17.817801
rradius 23.733801
lwrist 15.223300
rhand -38.054401 -2.060760
rhumerus -16.929001 -38.673599 14.417900
lowerneck -1.240500 13.735700 11.371000
lhand -21.700199 -12.110100
ltibia 58.385201
head 4.091780 9.030920 -0.756326
rwrist -12.264300
lfingers 7.125020
rtoes -5.890050
lowerback 3.530330 -0.412449 -11.226500
rfingers 7.125020
lclavicle 0.000000 -0.000000
upperneck 9.728580 17.643600 0.444106
rfemur -36.771198 -19.962601 53.820000
thorax -1.820140 -0.951689 -3.425740
rclavicle 0.000000 -0.000000
rtibia 52.339901
lfoot -36.816200 7.398760
lhumerus 54.060902 62.959702 48.671299
rthumb -11.091700 -31.747601
root -5.087800 18.014000 6.022950 -277.424988 -74.199501 -73.062500
ltoes -18.471500
lfemur -23.084400 23.337999 0.457106
